<svg width="20" height="20" viewBox="0 0 20 20" fill="none" xmlns="http://www.w3.org/2000/svg">
<path d="M18.1515 0H2.18183C1.16253 0 0.333313 0.829219 0.333313 1.84852V13.5909C0.333313 14.6102 1.16253 15.4394 2.18183 15.4394H12.3331L15.6298 18.7361C15.8042 18.9105 16.0356 19.0029 16.2718 19.0029C16.389 19.0029 16.5075 18.9801 16.6206 18.9332C16.9616 18.792 17.1819 18.4623 17.1819 18.0933V15.4395H18.1515C19.1708 15.4395 20 14.6102 20 13.5909V1.84852C20 0.829219 19.1708 0 18.1515 0ZM19.1211 13.5909C19.1211 14.1256 18.6862 14.5605 18.1515 14.5605H16.7424C16.4997 14.5605 16.303 14.7573 16.303 15V18.0933C16.303 18.1037 16.303 18.1135 16.2843 18.1212C16.2656 18.1289 16.2587 18.122 16.2513 18.1147L12.8259 14.6893C12.7435 14.6068 12.6317 14.5605 12.5152 14.5605H2.18183C1.64716 14.5605 1.21222 14.1256 1.21222 13.5909V1.84852C1.21222 1.31385 1.64716 0.878906 2.18183 0.878906H18.1514C18.6861 0.878906 19.121 1.31385 19.121 1.84852V13.5909H19.1211Z" fill="#FFBB01"/>
</svg>
