<svg width="4" height="3" viewBox="0 0 4 3" fill="none" xmlns="http://www.w3.org/2000/svg">
<path d="M1.85518 2.88348C1.15428 2.88348 0.55098 2.43349 0.453387 1.83916C0.400155 1.52501 0.550981 1.27879 0.692935 1.12596C0.967969 0.811816 1.44706 0.591064 1.85518 0.591064C2.26329 0.591064 2.73351 0.811816 3.01742 1.12596C3.1505 1.27879 3.3102 1.52501 3.25696 1.83916C3.15937 2.43349 2.55607 2.88348 1.85518 2.88348ZM1.85518 0.896719C1.54465 0.896719 1.25188 1.01559 1.06556 1.21936C0.905864 1.38067 0.834887 1.58444 0.852631 1.78821C0.896991 2.2382 1.33172 2.57782 1.85518 2.57782C2.37863 2.57782 2.81336 2.2382 2.85772 1.78821C2.87547 1.58444 2.80449 1.38067 2.64479 1.21936C2.45848 1.01559 2.1657 0.896719 1.85518 0.896719Z" fill="#272A24"/>
</svg>
