<svg width="20" height="20" viewBox="0 0 20 20" fill="none" xmlns="http://www.w3.org/2000/svg">
<path d="M19.2272 10.4393C18.9846 10.4393 18.7878 10.6361 18.7878 10.8788V13.697C18.7878 14.2316 18.3529 14.6666 17.8182 14.6666H7.48488C7.36834 14.6666 7.25654 14.7129 7.17416 14.7953L3.74877 18.2207C3.74145 18.2281 3.73441 18.235 3.71578 18.2273C3.69709 18.2196 3.69709 18.2097 3.69709 18.1994V15.1061C3.69709 14.8634 3.50033 14.6666 3.25764 14.6666H1.84852C1.31385 14.6666 0.878906 14.2317 0.878906 13.697V1.95459C0.878906 1.41993 1.31385 0.984985 1.84852 0.984985H8.89406C9.13676 0.984985 9.33352 0.788228 9.33352 0.545532C9.33352 0.302837 9.13676 0.106079 8.89406 0.106079H1.84852C0.829219 0.106079 0 0.935297 0 1.95459V13.697C0 14.7163 0.829219 15.5455 1.84852 15.5455H2.81813V18.1993C2.81813 18.5683 3.03844 18.898 3.3794 19.0392C3.49254 19.0861 3.61096 19.1089 3.72826 19.1089C3.9644 19.1089 4.19584 19.0165 4.37022 18.8422L7.66693 15.5455H17.8182C18.8375 15.5455 19.6668 14.7163 19.6668 13.697V10.8788C19.6667 10.6361 19.4699 10.4393 19.2272 10.4393Z" fill="#FFBB01"/>
</svg>
