<svg width="19" height="32" viewBox="0 0 19 32" fill="none" xmlns="http://www.w3.org/2000/svg">
<path d="M16.7804 10.4036C16.7751 10.3925 16.7751 10.3808 16.7692 10.3696C16.7629 10.359 16.7528 10.3531 16.7458 10.343C16.2082 9.42091 15.5722 8.56315 14.8501 7.7857L15.9923 6.64398L16.7442 7.39591L19 5.13959L16.7442 2.88381L14.4879 5.13959L15.2404 5.89205L14.0981 7.03377C13.3207 6.31162 12.4635 5.67509 11.5408 5.13747C11.5307 5.13055 11.5249 5.12045 11.5143 5.11407C11.5031 5.10769 11.4914 5.10822 11.4802 5.10237C9.83544 4.15475 7.98753 3.52353 6.0173 3.29221V2.65887H6.81497C7.54828 2.65887 8.1444 2.06275 8.1444 1.32943C8.1444 0.596119 7.54775 0 6.81443 0H2.02847C1.29515 0 0.699034 0.596119 0.699034 1.32943C0.699034 2.06275 1.29515 2.65887 2.02847 2.65887H2.82613V3.2736C2.25181 3.33475 1.67856 3.42835 1.11169 3.5581C0.825596 3.62351 0.646389 3.90907 0.712329 4.19516C0.777737 4.48126 1.0633 4.661 1.34939 4.59453C1.83863 4.48232 2.33264 4.39777 2.82772 4.34087L3.39832 4.29673C3.57274 4.28344 3.73334 4.27387 3.88968 4.26642V5.31774C3.88968 5.61181 4.12738 5.84951 4.42145 5.84951C4.71552 5.84951 4.95323 5.61181 4.95323 5.31774V4.27014C6.95323 4.36214 8.83783 4.89923 10.5135 5.78304L9.98912 6.69078C9.84235 6.9455 9.92957 7.27041 10.1838 7.41718C10.2672 7.46557 10.3587 7.48844 10.4491 7.48844C10.6331 7.48844 10.8118 7.39325 10.9102 7.22255L11.4329 6.31694C13.0968 7.37251 14.5103 8.78597 15.5658 10.4499L14.6602 10.9726C14.4066 11.1194 14.3194 11.4443 14.4667 11.699C14.5656 11.8697 14.7437 11.9649 14.9277 11.9649C15.0181 11.9649 15.1096 11.942 15.1931 11.8937L16.1008 11.3693C16.9968 13.0689 17.5355 14.9843 17.6158 17.0162H16.5656C16.2715 17.0162 16.0338 17.2539 16.0338 17.548C16.0338 17.8421 16.2715 18.0798 16.5656 18.0798H17.6158C17.5355 20.1117 16.9968 22.0271 16.1008 23.7267L15.1931 23.2024C14.9389 23.0556 14.6134 23.1417 14.4667 23.397C14.3199 23.6517 14.4071 23.9766 14.6613 24.1234L15.5669 24.6461C14.5113 26.31 13.0979 27.7235 11.434 28.7791L10.9112 27.8735C10.7639 27.6182 10.4379 27.5315 10.1848 27.6788C9.9301 27.8256 9.84289 28.151 9.99019 28.4052L10.5145 29.313C8.8389 30.1968 6.95429 30.7339 4.95429 30.8259V29.7793C4.95429 29.4853 4.71659 29.2476 4.42252 29.2476C4.12844 29.2476 3.89074 29.4853 3.89074 29.7793V30.8301C3.0415 30.8009 2.1896 30.6945 1.35099 30.502C1.06489 30.4334 0.779332 30.6153 0.713923 30.9014C0.647983 31.1875 0.827192 31.473 1.11329 31.5384C2.17471 31.7831 3.25899 31.9064 4.33477 31.9064C4.36083 31.9064 4.38582 31.9048 4.41188 31.9043C4.4156 31.9043 4.41826 31.9064 4.42145 31.9064C4.42571 31.9064 4.42943 31.9038 4.43368 31.9038C6.98992 31.8862 9.38822 31.196 11.4632 30.0037C11.4797 29.9963 11.4972 29.9926 11.5132 29.983C11.5238 29.9766 11.5297 29.9665 11.5398 29.9596C13.6876 28.7078 15.4823 26.9152 16.7368 24.769C16.7469 24.7546 16.7597 24.7434 16.7687 24.7275C16.7751 24.7163 16.7746 24.7046 16.7799 24.6935C17.9944 22.5876 18.6927 20.1489 18.6927 17.5485C18.6927 14.9482 17.9944 12.5094 16.7804 10.4036ZM16.7437 4.38767L17.4956 5.13959L16.7437 5.89205L15.9913 5.13959L16.7437 4.38767ZM3.88968 3.20181V1.59532H2.02847C1.88223 1.59532 1.76258 1.47567 1.76258 1.32943C1.76258 1.1832 1.88223 1.06355 2.02847 1.06355H6.81443C6.96067 1.06355 7.08032 1.1832 7.08032 1.32943C7.08032 1.47567 6.96067 1.59532 6.81443 1.59532H4.95323V3.20181C4.76817 3.19437 4.59162 3.19064 4.42145 3.19064C4.40656 3.19064 4.38955 3.19171 4.37466 3.19171C4.36136 3.19171 4.34807 3.19064 4.33477 3.19064C4.24756 3.19064 4.16035 3.19649 4.07314 3.19809C4.01145 3.19968 3.95349 3.19915 3.88968 3.20181Z" fill="#FFBB01"/>
</svg>
